<svg width="120" height="150" viewBox="0 0 120 150" fill="none" xmlns="http://www.w3.org/2000/svg">
  <defs>
    <linearGradient id="g" x1="60" y1="12" x2="105" y2="142" gradientUnits="userSpaceOnUse">
      <stop stop-color="#3B82F6"/>
      <stop offset="0.6" stop-color="#4F46E5"/>
      <stop offset="1" stop-color="#7C3AED"/>
    </linearGradient>
    <clipPath id="c">
      <path d="M60 12 C92 50 106 78 106 98 A46 46 0 1 1 14 98 C14 78 28 50 60 12 Z"/>
    </clipPath>
  </defs>
  <g clip-path="url(#c)">
    <rect x="60" y="0" width="60" height="150" fill="url(#g)"/>
    <path d="M92 60 C100 78 102 92 98 108" stroke="rgba(255,255,255,0.45)" stroke-width="3" stroke-linecap="round" fill="none"/>
  </g>
  <path d="M60 12 C92 50 106 78 106 98 A46 46 0 1 1 14 98 C14 78 28 50 60 12 Z" stroke="#4F46E5" stroke-width="4" fill="none" stroke-linejoin="round"/>
  <line x1="60" y1="12" x2="60" y2="142" stroke="#4F46E5" stroke-width="3.5"/>
  <g clip-path="url(#c)" stroke="#3B82F6" stroke-width="3.5" stroke-linecap="round" fill="none">
    <path d="M52 44 C40 42 33 50 35 60 C25 62 24 74 33 78 C26 84 30 96 40 96 C42 106 54 106 54 96"/>
    <path d="M52 56 C44 56 42 62 47 66"/>
    <path d="M52 72 C43 72 41 80 48 84"/>
  </g>
</svg>
